<svg xmlns="http://www.w3.org/2000/svg" data-name="Layer 3" viewBox="0 0 64 64" id="file-ppt">
    <path fill="#f4b2b0"
          d="M46 2H18a2.006 2.006 0 00-2 2V16H48V4A2.006 2.006 0 0046 2zM7 48a4 4 0 004 4H53a4 4 0 004-4V46H7zM37 31a7 7 0 11-7-7v7z"></path>
    <path fill="#f4b2b0" d="M41,28H33V20A8,8,0,0,1,41,28Z"></path>
    <path fill="#b3404a"
          d="M53,19H49V4a3,3,0,0,0-3-3H18a3,3,0,0,0-3,3V19H11a5.006,5.006,0,0,0-5,5V48a5.006,5.006,0,0,0,5,5H26v4a5.006,5.006,0,0,0-5,5,1,1,0,0,0,1,1H42a1,1,0,0,0,1-1,5.006,5.006,0,0,0-5-5V53H53a5.006,5.006,0,0,0,5-5V24A5.006,5.006,0,0,0,53,19ZM47,34H43a3,3,0,0,0-3,3v4H18a1,1,0,0,1-1-1V17H47Zm-1.414,2L42,39.586V37a1,1,0,0,1,1-1ZM18,3H46a1,1,0,0,1,1,1V15H17V4A1,1,0,0,1,18,3ZM11,21h4V40a3,3,0,0,0,3,3H41a1,1,0,0,0,.707-.293l7-7A1,1,0,0,0,49,35V21h4a3,3,0,0,1,3,3V45H8V24A3,3,0,0,1,11,21ZM40.829,61H23.171A3.006,3.006,0,0,1,26,59H38A3.006,3.006,0,0,1,40.829,61ZM36,57H28V53h8Zm17-6H11a3,3,0,0,1-3-3V47H56v1A3,3,0,0,1,53,51Z"></path>
    <path fill="#b3404a"
          d="M25 11h1a3 3 0 000-6H24a1 1 0 00-1 1v7h2zm0-4h1a1 1 0 010 2H25zM32 11h1a3 3 0 000-6H31a1 1 0 00-1 1v7h2zm0-4h1a1 1 0 010 2H32z"></path>
    <polygon fill="#b3404a" points="39 13 41 13 41 7 43 7 43 5 37 5 37 7 39 7 39 13"></polygon>
    <path fill="#b3404a"
          d="M30,39a8.009,8.009,0,0,0,8-8,1,1,0,0,0-1-1H31V24a1,1,0,0,0-1-1,8,8,0,0,0,0,16ZM29,25.083V31a1,1,0,0,0,1,1h5.917A6,6,0,1,1,29,25.083Z"></path>
    <path fill="#b3404a"
          d="M33,29h8a1,1,0,0,0,1-1,9.01,9.01,0,0,0-9-9,1,1,0,0,0-1,1v8A1,1,0,0,0,33,29Zm1-7.929A7.016,7.016,0,0,1,39.929,27H34Z"></path>
</svg>