<svg xmlns="http://www.w3.org/2000/svg" width="32" height="32" viewBox="0 0 32 32"><g transform="translate(.516 -1020.854)"><path fill="none" stroke="#108c8e" stroke-linecap="round" stroke-linejoin="round" d="m 13.110539,1026.0802 c -0.824294,-0.4375 -1.718341,-0.718 -2.653508,-0.718 -4.1421347,0 -7.4999997,2.6603 -7.4999997,7.4999 0,4.8398 7,9.5001 12.9999997,14.5001 6,-5 13.03125,-9.601 13.03125,-14.5001 0,-4.8989 -3.357864,-7.4999 -7.5,-7.4999 -0.198673,0 -0.395632,0.013 -0.590575,0.036"/><path fill="none" stroke="#108c8e" stroke-linecap="round" stroke-linejoin="round" d="M 13.123552,5.7528958 11,9 l 2,1 -1,3 3,2 -1,1 3,4 0,-4 2,-1 c -1.061154,-1.061154 -0.772179,-0.772179 -2,-2 l 2,-3 -2,-1 3.88417,-3.9305019" transform="translate(0 1020.362)"/></g></svg>