<svg xmlns:xlink="http://www.w3.org/1999/xlink" xmlns="http://www.w3.org/2000/svg" viewBox="0 0 32 32" id="png-format">
    <defs>
        <linearGradient id="b" x1="5" x2="27" y1="16" y2="16" gradientUnits="userSpaceOnUse">
            <stop offset="0" stop-color="#ffd766"></stop>
            <stop offset="1" stop-color="#f2c861"></stop>
        </linearGradient>
        <linearGradient id="c" x1="5" x2="27" y1="23.5" y2="23.5" gradientUnits="userSpaceOnUse">
            <stop offset="0" stop-color="#f7931e"></stop>
            <stop offset="1" stop-color="#e5811f"></stop>
        </linearGradient>
        <linearGradient id="a" x1="7.5" x2="12.5" y1="23.5" y2="23.5" gradientUnits="userSpaceOnUse">
            <stop offset="0" stop-color="#f2efed"></stop>
            <stop offset="1" stop-color="#e7e4e1"></stop>
        </linearGradient>
        <linearGradient id="d" x1="19.5" x2="24.5" xlink:href="#a"></linearGradient>
    </defs>
    <path fill="url(#b)"
          d="m26.71 7.29-6-6A1 1 0 0 0 20 1H7a2 2 0 0 0-2 2v26a2 2 0 0 0 2 2h18a2 2 0 0 0 2-2V8a1 1 0 0 0-.29-.71Z"></path>
    <path fill="url(#c)" d="M5 16v13a2 2 0 0 0 2 2h18a2 2 0 0 0 2-2V16Z"></path>
    <path fill="url(#a)"
          d="M10.25 20H8.5a1 1 0 0 0-1 1v5a1 1 0 0 0 2 0v-1.5h.75a2.25 2.25 0 0 0 0-4.5Zm0 2.5H9.5V22h.75a.25.25 0 0 1 0 .5Z"></path>
    <path fill="url(#d)"
          d="M22 27a2.56 2.56 0 0 1-2.5-2.61v-1.78A2.56 2.56 0 0 1 22 20h1.5a1 1 0 0 1 0 2H22a.57.57 0 0 0-.5.61v1.78a.57.57 0 0 0 .5.61.54.54 0 0 0 .49-.53 1 1 0 0 1 .24-2h.77a1 1 0 0 1 1 1v.89A2.56 2.56 0 0 1 22 27Z"></path>
    <path fill="#f2efed"
          d="M17.5 27a1 1 0 0 1-.86-.49l-1.14-1.9V26a1 1 0 0 1-2 0v-5a1 1 0 0 1 1.86-.51l1.14 1.9V21a1 1 0 0 1 2 0v5a1 1 0 0 1-.73 1 .84.84 0 0 1-.27 0Z"></path>
</svg>