<svg xmlns="http://www.w3.org/2000/svg" viewBox="0 0 64 64" id="pptx-file">
    <rect width="40" height="54" x="21" y="7" fill="#ff7956"></rect>
    <path fill="#ffda44" d="M49,7l8,8H47a2.006,2.006,0,0,1-2-2V3Z"></path>
    <path fill="#ffeb99" d="M57,15V57H17V3H45V13a2.006,2.006,0,0,0,2,2Z"></path>
    <rect width="50" height="20" x="3" y="22" fill="#2488ff"></rect>
    <path d="M61,6H49.414L45.707,2.293A1,1,0,0,0,45,2H17a1,1,0,0,0-1,1V21H3a1,1,0,0,0-1,1V42a1,1,0,0,0,1,1H16V57a1,1,0,0,0,1,1h3v3a1,1,0,0,0,1,1H61a1,1,0,0,0,1-1V7A1,1,0,0,0,61,6ZM46,5.414,54.586,14H47a1,1,0,0,1-1-1ZM4,23H52V41H4ZM18,43H53a1,1,0,0,0,1-1V22a1,1,0,0,0-1-1H18V4H44v9a3,3,0,0,0,3,3h9V56H18ZM60,60H22V58H57a1,1,0,0,0,1-1V15a1,1,0,0,0-.293-.707L51.414,8H60Z"></path>
    <polygon points="29 27 33 27 33 39 35 39 35 27 39 27 39 25 29 25 29 27"></polygon>
    <path d="M14 25H6a1 1 0 0 0-1 1V39H7V33h7a1 1 0 0 0 1-1V26A1 1 0 0 0 14 25zm-1 6H7V27h6zM26 25H18a1 1 0 0 0-1 1V39h2V33h7a1 1 0 0 0 1-1V26A1 1 0 0 0 26 25zm-1 6H19V27h6zM50.882 25.528A1 1 0 0 0 50 25H47v2h1.131L46 30.2 43.869 27H45V25H42a1 1 0 0 0-.832 1.555L44.8 32l-3.63 5.445A1 1 0 0 0 42 39h3V37H43.869L46 33.8 48.131 37H47v2h3a1 1 0 0 0 .832-1.555L47.2 32l3.63-5.445A1 1 0 0 0 50.882 25.528z"></path>
</svg>