<svg xmlns="http://www.w3.org/2000/svg" version="1.2" viewBox="0 0 512 512" id="rar-file-format">
    <path fill="#FFF"
          d="M422.3 477.9c0 7.6-6.2 13.8-13.8 13.8h-305c-7.6 0-13.8-6.2-13.8-13.8V34.1c0-7.6 6.2-13.8 13.8-13.8h230.1V109h88.7v368.9z"></path>
    <path fill="#DE3258"
          d="M333.6 6H103.5C88 6 75.4 18.6 75.4 34.1v443.8c0 15.5 12.6 28.1 28.1 28.1h305c15.5 0 28.1-12.6 28.1-28.1V109.1L333.6 6zm88.7 471.9c0 7.6-6.2 13.8-13.8 13.8h-305c-7.6 0-13.8-6.2-13.8-13.8V34.1c0-7.6 6.2-13.8 13.8-13.8h230.1V109h88.7v368.9z"></path>
    <path fill="#B31647"
          d="M333.6 6v103.1h103zM465.9 450.8H46.1V308c0-9.8 7.9-17.7 17.7-17.7h384.3c9.8 0 17.7 7.9 17.7 17.7v142.8z"></path>
    <path fill="#770438" d="M436.6 450.8v19.5l29.3-19.5zM75.4 450.8v19.5l-29.3-19.5z"></path>
    <path fill="#DE3258"
          d="M64.1 308.4h383.7v124.5H64.1zM298.3 78.6h-177a6.7 6.7 0 010-13.4h177a6.7 6.7 0 010 13.4zM298.3 110.6h-177a6.7 6.7 0 010-13.4h177a6.7 6.7 0 010 13.4zM391.8 142.5H121.3a6.7 6.7 0 010-13.4h270.5a6.7 6.7 0 010 13.4zM391.8 174.5H121.3a6.7 6.7 0 010-13.4h270.5a6.7 6.7 0 010 13.4zM391.8 206.5H121.3a6.7 6.7 0 010-13.4h270.5a6.7 6.7 0 010 13.4zM391.8 238.4H121.3a6.7 6.7 0 010-13.4h270.5a6.7 6.7 0 010 13.4zM391.8 270.4H121.3a6.7 6.7 0 010-13.4h270.5a6.7 6.7 0 010 13.4z"></path>
    <path fill="#FFF"
          d="m201.5 352.5-7.8-.1c-2.8 0-5 .5-6.8 1.5-1.8 1-3.1 2.5-3.9 4.3V409h-24.1v-77h22.7l.9 11.3c1.6-4 3.8-7.2 6.4-9.4 2.7-2.2 5.8-3.3 9.3-3.3 1.1 0 2.1.1 2.9.2.9.1 1.8.4 2.7.6l-2.3 21.1zM265.1 409c-.9-1.6-1.7-3.4-2.3-5.5-.6-2-1.1-4.2-1.5-6.4-2.1 4.1-4.7 7.3-7.7 9.8-3.1 2.4-7.1 3.7-12 3.7-8.1 0-14.4-2.1-18.8-6.2-4.5-4.2-6.7-9.8-6.7-17 0-7.6 2.9-13.5 8.6-17.7 5.7-4.2 14.5-6.2 26.1-6.2h9.9V358c0-3.3-.8-5.8-2.4-7.6-1.6-1.8-4-2.6-7.2-2.6-2.8 0-4.9.7-6.2 2-1.4 1.3-2 3.3-2 6.1l-23.4-.1-.1-.4c-.3-7 2.6-12.9 8.8-17.6 6.2-4.7 14.4-7.1 24.5-7.1 9.5 0 17.3 2.4 23.2 7.1 5.9 4.7 8.9 11.5 8.9 20.4v29.1c0 4.1.3 7.9 1 11.4s1.7 7 3.1 10.5l-23.8-.2zm-16.9-15.6c2.9 0 5.5-.7 7.8-2.1 2.3-1.4 3.8-3 4.7-4.9v-10.2H251c-3.8 0-6.6.9-8.3 2.8-1.7 1.9-2.6 4.2-2.6 7.1 0 2.2.7 4 2.2 5.3 1.6 1.4 3.5 2 5.9 2zM350.8 352.5l-7.8-.1c-2.8 0-5 .5-6.8 1.5-1.8 1-3.1 2.5-3.9 4.3V409h-24.1v-77h22.7l.9 11.3c1.6-4 3.8-7.2 6.4-9.4 2.7-2.2 5.8-3.3 9.3-3.3 1.1 0 2.1.1 2.9.2.9.1 1.8.4 2.7.6l-2.3 21.1z"></path>
</svg>