<svg xmlns="http://www.w3.org/2000/svg" viewBox="0 0 24 24" fill="#108c8e"><path d="M7.36 15.645H1.868a1.756 1.756 0 01-1.754-1.754V3.397c0-.967.787-1.753 1.754-1.753H7.36c.967 0 1.754.786 1.754 1.753v10.494c0 .966-.787 1.754-1.754 1.754zM23.49 11.087c.271-.761.292-1.977-.491-2.799.063-1.358-.286-2.322-1.037-2.875-.011-.707-.325-1.526-.823-2.099-.383-.438-.825-.672-1.277-.672h-9.228c-.142 0-.325.033-.52.08v11.71c.804 1.031 1.395 2.398 2 4.145v2.686c0 .09.025.18.071.258.319.529.875.834 1.524.834.797 0 1.619-.459 2.203-1.23.576-.762 1.39-2.453.693-5.48h4.214c.915 0 3.065-1.139 3.065-2.699.003-.548-.059-1.377-.394-1.859z"/></svg>