<svg xmlns="http://www.w3.org/2000/svg" viewBox="0 0 24 24" fill="#108e8e"><path d="M7.11,11.52,6.4,16.46c-.0738.5894.29,1.14,1.14,1.14l4.94-.71a.9959.9959,0,0,0,.57-.28c.0789-.0789,7.83-7.8228,7.9-7.91,3.4423-3.8023-1.9751-8.9887-5.65-5.65-.0866.0693-7.8316,7.8216-7.91,7.9A.9959.9959,0,0,0,7.11,11.52ZM18,4.02A1.9741,1.9741,0,0,1,20,6a1.9324,1.9324,0,0,1-.4,1.18L16.82,4.4A1.9346,1.9346,0,0,1,18,4.02ZM9.04,12.13,15.38,5.8,18.2,8.62l-6.33,6.34-3.3.47Z"/><path d="M19,13.125V17a3.0033,3.0033,0,0,1-3,3H7a3.0033,3.0033,0,0,1-3-3V8A3.0033,3.0033,0,0,1,7,5h3.9688a1,1,0,0,0,0-2H7A5.0059,5.0059,0,0,0,2,8v9a5.0059,5.0059,0,0,0,5,5h9a5.0059,5.0059,0,0,0,5-5V13.125A1,1,0,0,0,19,13.125Z"/></svg>