<svg xmlns="http://www.w3.org/2000/svg" viewBox="0 0 64 64" id="zip">
    <g data-name="Filled outline">
        <rect width="46" height="54" x="11" y="3" fill="#bf5900"></rect>
        <polygon fill="#f7fcff" points="53 17 53 61 7 61 7 7 43 7 53 17"></polygon>
        <polygon fill="#fa0" points="7 7 7 25 53 25 53 17 43 7 7 7"></polygon>
        <path fill="#ff7600" d="M53,17H45a2,2,0,0,1-2-2V7Z"></path>
        <polygon fill="#fa0" points="33 56 27 56 28.2 48 31.8 48 33 56"></polygon>
        <path fill="#1e120b"
              d="M18.87 10.507A1 1 0 0018 10H12a1 1 0 000 2h4.233l-5.09 8.485A1 1 0 0012 22h6a1 1 0 000-2H13.767l5.09-8.485A1 1 0 0018.87 10.507zM33 32a1 1 0 000-2H27a1 1 0 000 2h2v2H27a1 1 0 000 2h2v2H27a1 1 0 000 2h2v2H27a1 1 0 000 2h2v3h-.8a1 1 0 00-.989.852l-1.2 8A1 1 0 0027 57h6a1 1 0 00.989-1.148l-1.2-8A1 1 0 0031.8 47H31V44h2a1 1 0 000-2H31V40h2a1 1 0 000-2H31V36h2a1 1 0 000-2H31V32zM31.839 55H28.161l.9-6h1.876zM28 12a1 1 0 000-2H22a1 1 0 000 2h2v8H22a1 1 0 000 2h6a1 1 0 000-2H26V12zM35.5 10H32a1 1 0 00-1 1V21a1 1 0 002 0V17h2.5a3.5 3.5 0 000-7zm0 5H33V12h2.5a1.5 1.5 0 010 3z"></path>
        <circle cx="53" cy="43" r="1" fill="#1e120b"></circle>
        <path fill="#1e120b"
              d="M57,2H11a1,1,0,0,0-1,1V6H7A1,1,0,0,0,6,7V61a1,1,0,0,0,1,1H53a1,1,0,0,0,1-1V58h3a1,1,0,0,0,1-1V3A1,1,0,0,0,57,2ZM8,8H42v7a3,3,0,0,0,3,3h7v6H8Zm36,7V9.414L50.586,16H45A1,1,0,0,1,44,15ZM56,56H54V47a1,1,0,0,0-2,0V60H8V26H52V39a1,1,0,0,0,2,0V17a1,1,0,0,0-.293-.707l-10-10A1,1,0,0,0,43,6H12V4H56Z"></path>
    </g>
</svg>